<?xml version="1.0" encoding="utf-8"?>
<!-- Generator: Adobe Illustrator 16.0.0, SVG Export Plug-In . SVG Version: 6.00 Build 0)  -->
<!DOCTYPE svg PUBLIC "-//W3C//DTD SVG 1.1//EN" "http://www.w3.org/Graphics/SVG/1.1/DTD/svg11.dtd">
<svg version="1.1" id="Ebene_1" xmlns="http://www.w3.org/2000/svg" xmlns:xlink="http://www.w3.org/1999/xlink" x="0px" y="0px"
	 width="200px" height="241.23px" viewBox="0 0 200 241.23" enable-background="new 0 0 200 241.23" xml:space="preserve">
<rect width="200.002" height="78.169"/>
<rect y="80.622" width="64.422" height="110.542"/>
<rect y="193.212" width="132.891" height="48.018"/>
<rect x="66.997" y="80.622" width="133.005" height="47.989"/>
<rect x="135.578" y="130.042" width="64.422" height="111.188"/>
<rect x="66.997" y="130.042" width="65.894" height="61.122"/>
<text transform="matrix(1 0 0 1 90.7095 51.666)" fill="#FFFFFF" font-family="'MyriadPro-Regular'" font-size="36">1</text>
<text transform="matrix(1 0 0 1 22.9775 146.5366)" fill="#FFFFFF" font-family="'MyriadPro-Regular'" font-size="36">2</text>
<text transform="matrix(1 0 0 1 57.2114 228.7085)" fill="#FFFFFF" font-family="'MyriadPro-Regular'" font-size="36">3</text>
<text transform="matrix(1 0 0 1 124.2656 116.3823)" fill="#FFFFFF" font-family="'MyriadPro-Regular'" font-size="36">4</text>
<text transform="matrix(1 0 0 1 90.71 170.3081)" fill="#FFFFFF" font-family="'MyriadPro-Regular'" font-size="36">5</text>
<text transform="matrix(1 0 0 1 158.5547 195.8218)" fill="#FFFFFF" font-family="'MyriadPro-Regular'" font-size="36">6</text>
</svg>
